<?xml version="1.0" encoding="UTF-8"?>
<svg version="1.1" xmlns="http://www.w3.org/2000/svg" width="1242" height="847">
<path d="M0 0 C409.86 0 819.72 0 1242 0 C1242 279.51 1242 559.02 1242 847 C832.14 847 422.28 847 0 847 C0 567.49 0 287.98 0 0 Z " fill="#FEFEFE" transform="translate(0,0)"/>
<path d="M0 0 C11.22 0 22.44 0 34 0 C37 9 37 9 37 13 C37.70060547 13.04318359 38.40121094 13.08636719 39.12304688 13.13085938 C48.72745764 13.79135198 58.24802933 14.94367507 67.79589844 16.15673828 C70.5223213 16.50283349 73.24937898 16.84354958 75.9765625 17.18359375 C77.7239977 17.40333303 79.47139498 17.62337407 81.21875 17.84375 C82.02711304 17.94482056 82.83547607 18.04589111 83.66833496 18.15002441 C84.42682739 18.24682495 85.18531982 18.34362549 85.96679688 18.44335938 C86.62707886 18.52694702 87.28736084 18.61053467 87.96765137 18.69665527 C90.32556688 19.04859353 92.66226069 19.53245214 95 20 C95 46.73 95 73.46 95 101 C9.2 101 -76.6 101 -165 101 C-165 114.53 -165 128.06 -165 142 C-169.00125 142.495 -173.0025 142.99 -177.125 143.5 C-178.37555176 143.65662109 -179.62610352 143.81324219 -180.91455078 143.97460938 C-181.91470215 144.09642578 -182.91485352 144.21824219 -183.9453125 144.34375 C-184.96125488 144.46943359 -185.97719727 144.59511719 -187.02392578 144.72460938 C-190.00462416 145.0004279 -193.0065674 145 -196 145 C-196.33 122.23 -196.66 99.46 -197 76 C-199.31 84.25 -201.62 92.5 -204 101 C-220.17 101 -236.34 101 -253 101 C-253.04010881 79.07830743 -253.04010881 79.07830743 -253.04882812 69.76757812 C-253.0548168 63.40274222 -253.06191775 57.03792064 -253.07543945 50.6730957 C-253.08626755 45.54436015 -253.09227667 40.41563994 -253.09487724 35.28689384 C-253.09673163 33.32558386 -253.10035251 31.36427476 -253.10573006 29.40297127 C-253.11293946 26.66584553 -253.11399099 23.92878403 -253.11352539 21.19165039 C-253.11712067 20.37238068 -253.12071594 19.55311096 -253.12442017 18.70901489 C-253.11405216 13.11405216 -253.11405216 13.11405216 -252 12 C-250.44731382 11.73701778 -248.88475391 11.53188752 -247.3203125 11.3515625 C-246.32644531 11.23296875 -245.33257813 11.114375 -244.30859375 10.9921875 C-243.25800781 10.87101562 -242.20742188 10.74984375 -241.125 10.625 C-232.4122669 9.62482714 -232.4122669 9.62482714 -223.75561523 8.23608398 C-211.02540079 5.93028898 -198.72932229 5.64641607 -185.8125 5.8125 C-178.944375 5.874375 -172.07625 5.93625 -165 6 C-165 27.12 -165 48.24 -165 70 C-130.35 70 -95.7 70 -60 70 C-60 53.5 -60 37 -60 20 C-49.42704677 18.23784113 -39.0018869 16.5026593 -28.375 15.3125 C-26.73724609 15.11817383 -26.73724609 15.11817383 -25.06640625 14.91992188 C-19.33553814 14.26506452 -13.76756618 13.85336696 -8 14 C-7.67 18.62 -7.34 23.24 -7 28 C-4.69 18.76 -2.38 9.52 0 0 Z " fill="#2F3E7F" transform="translate(854,358)"/>
<path d="M0 0 C97.02 0 194.04 0 294 0 C294 99 294 198 294 300 C282.45 300 270.9 300 259 300 C259 212.88 259 125.76 259 36 C173.53 36 88.06 36 0 36 C0 24.12 0 12.24 0 0 Z " fill="#2F3D7F" transform="translate(771,228)"/>
<path d="M0 0 C11.55 0 23.1 0 35 0 C35 87.45 35 174.9 35 265 C120.47 265 205.94 265 294 265 C294 276.55 294 288.1 294 300 C196.98 300 99.96 300 0 300 C0 201 0 102 0 0 Z " fill="#2D3C7E" transform="translate(177,314)"/>
<path d="M0 0 C1.98 0 3.96 0 6 0 C6 279.51 6 559.02 6 847 C4.02 847 2.04 847 0 847 C0 567.49 0 287.98 0 0 Z " fill="#E0E0E4" transform="translate(0,0)"/>
<path d="M0 0 C1.98 0 3.96 0 6 0 C6 279.51 6 559.02 6 847 C4.02 847 2.04 847 0 847 C0 567.49 0 287.98 0 0 Z " fill="#E1E1E5" transform="translate(1236,0)"/>
<path d="M0 0 C2.06460064 -0.00431373 4.12694459 -0.04063819 6.19116211 -0.07861328 C19.68882114 -0.11615893 30.9526364 2.15650386 44.79077148 4.37060547 C44.79077148 22.85060547 44.79077148 41.33060547 44.79077148 60.37060547 C49.41077148 60.37060547 54.03077148 60.37060547 58.79077148 60.37060547 C58.79077148 40.57060547 58.79077148 20.77060547 58.79077148 0.37060547 C70.67077148 0.37060547 82.55077148 0.37060547 94.79077148 0.37060547 C94.79077148 32.05060547 94.79077148 63.73060547 94.79077148 96.37060547 C66.41077148 96.37060547 38.03077148 96.37060547 8.79077148 96.37060547 C8.79077148 76.57060547 8.79077148 56.77060547 8.79077148 36.37060547 C5.16077148 36.37060547 1.53077148 36.37060547 -2.20922852 36.37060547 C-2.20922852 62.77060547 -2.20922852 89.17060547 -2.20922852 116.37060547 C-40.48922852 116.37060547 -78.76922852 116.37060547 -118.20922852 116.37060547 C-118.20922852 86.34060547 -118.20922852 56.31060547 -118.20922852 25.37060547 C-90.20922852 21.37060547 -90.20922852 21.37060547 -82.20922852 21.37060547 C-82.20922852 40.84060547 -82.20922852 60.31060547 -82.20922852 80.37060547 C-67.68922852 80.37060547 -53.16922852 80.37060547 -38.20922852 80.37060547 C-38.20922852 55.29060547 -38.20922852 30.21060547 -38.20922852 4.37060547 C-25.37500605 1.80376098 -13.0757072 -0.00302084 0 0 Z M-33.20922852 8.37060547 C-33.20922852 33.78060547 -33.20922852 59.19060547 -33.20922852 85.37060547 C-51.02922852 85.37060547 -68.84922852 85.37060547 -87.20922852 85.37060547 C-87.20922852 65.90060547 -87.20922852 46.43060547 -87.20922852 26.37060547 C-95.90326135 27.0951082 -104.5727426 28.13682177 -113.20922852 29.37060547 C-113.20922852 56.43060547 -113.20922852 83.49060547 -113.20922852 111.37060547 C-78.22922852 111.37060547 -43.24922852 111.37060547 -7.20922852 111.37060547 C-7.20922852 84.97060547 -7.20922852 58.57060547 -7.20922852 31.37060547 C-0.27922852 31.37060547 6.65077148 31.37060547 13.79077148 31.37060547 C13.79077148 51.17060547 13.79077148 70.97060547 13.79077148 91.37060547 C38.87077148 91.37060547 63.95077148 91.37060547 89.79077148 91.37060547 C89.79077148 62.99060547 89.79077148 34.61060547 89.79077148 5.37060547 C81.21077148 5.37060547 72.63077148 5.37060547 63.79077148 5.37060547 C63.79077148 25.17060547 63.79077148 44.97060547 63.79077148 65.37060547 C55.87077148 65.37060547 47.95077148 65.37060547 39.79077148 65.37060547 C39.79077148 46.56060547 39.79077148 27.75060547 39.79077148 8.37060547 C21.29772742 5.77926304 21.29772742 5.77926304 2.91577148 5.05810547 C1.79082275 5.06720947 0.66587402 5.07631348 -0.49316406 5.08569336 C-11.59037163 5.25027901 -22.26706503 6.54691155 -33.20922852 8.37060547 Z " fill="#3F4C80" transform="translate(435.209228515625,373.62939453125)"/>
<path d="M0 0 C10.23 0 20.46 0 31 0 C31 44.88 31 89.76 31 136 C5 140 5 140 0 140 C0 93.8 0 47.6 0 0 Z " fill="#313F7F" transform="translate(552,364)"/>
<path d="M0 0 C1.65 0 3.3 0 5 0 C4.34 1.32 3.68 2.64 3 4 C3.33 4 3.66 4 4 4 C4 29.41 4 54.82 4 81 C-13.49 81 -30.98 81 -49 81 C-49 61.53 -49 42.06 -49 22 C-58.9 23.485 -58.9 23.485 -69 25 C-70.98 25 -72.96 25 -75 25 C-75 52.06 -75 79.12 -75 107 C-40.02 107 -5.04 107 31 107 C31 80.6 31 54.2 31 27 C37.6 27 44.2 27 51 27 C51 27.33 51 27.66 51 28 C45.06 28.33 39.12 28.66 33 29 C33 54.08 33 79.16 33 105 C33.33 82.56 33.66 60.12 34 37 C34.33 37 34.66 37 35 37 C35 61.75 35 86.5 35 112 C-2.95 112 -40.9 112 -80 112 C-80 81.97 -80 51.94 -80 21 C-52 17 -52 17 -44 17 C-44 36.47 -44 55.94 -44 76 C-29.48 76 -14.96 76 0 76 C0 50.92 0 25.84 0 0 Z " fill="#3A467C" transform="translate(397,378)"/>
<path d="M0 0 C20.46 0 40.92 0 62 0 C62 10.89 62 21.78 62 33 C41.54 33 21.08 33 0 33 C0 22.11 0 11.22 0 0 Z " fill="#F9FAFC" transform="translate(840,395)"/>
<path d="M0 0 C0.70576172 0.6496875 0.70576172 0.6496875 1.42578125 1.3125 C2.04839844 1.869375 2.67101562 2.42625 3.3125 3 C4.23482422 3.8353125 4.23482422 3.8353125 5.17578125 4.6875 C7.03131335 6.29201498 7.03131335 6.29201498 10 6 C11.45034604 4.69543498 11.45034604 4.69543498 12.6875 3 C13.450625 2.01 14.21375 1.02 15 0 C18.2586636 1.4264578 20.4024854 3.16704162 22.890625 5.6953125 C23.95410156 6.76845703 23.95410156 6.76845703 25.0390625 7.86328125 C25.76867187 8.60964844 26.49828125 9.35601562 27.25 10.125 C27.99507813 10.87910156 28.74015625 11.63320313 29.5078125 12.41015625 C31.3431342 14.26900772 33.1736191 16.13237005 35 18 C33.5735422 21.2586636 31.83295838 23.4024854 29.3046875 25.890625 C28.58925781 26.59960938 27.87382812 27.30859375 27.13671875 28.0390625 C26.01716797 29.13347656 26.01716797 29.13347656 24.875 30.25 C24.12089844 30.99507812 23.36679687 31.74015625 22.58984375 32.5078125 C20.73099228 34.3431342 18.86762995 36.1736191 17 38 C13.67240077 36.44805246 11.51419515 34.69378051 9 32 C5.63279613 33.39332574 4.0140476 34.9789286 2 38 C-1.74391122 37.42897488 -3.46934589 35.9053201 -6.109375 33.25390625 C-6.86347656 32.49916016 -7.61757813 31.74441406 -8.39453125 30.96679688 C-9.56048828 29.77666992 -9.56048828 29.77666992 -10.75 28.5625 C-11.54277344 27.77294922 -12.33554687 26.98339844 -13.15234375 26.16992188 C-19 20.26690915 -19 20.26690915 -19 18 C-17.63671875 16.66015625 -17.63671875 16.66015625 -15.6875 15.0625 C-10.13853658 10.36032633 -5.09624567 5.18055856 0 0 Z " fill="#3B477F" transform="translate(366,500)"/>
<path d="M0 0 C8.58 0 17.16 0 26 0 C26 10.89 26 21.78 26 33 C17.42 33 8.84 33 0 33 C0 22.11 0 11.22 0 0 Z " fill="#F5F7FA" transform="translate(632,395)"/>
<path d="M0 0 C2.57218845 1.20376424 4.1371447 2.72775274 6.12304688 4.75878906 C7.25419922 5.90444336 7.25419922 5.90444336 8.40820312 7.07324219 C9.57416016 8.2769043 9.57416016 8.2769043 10.76367188 9.50488281 C11.95283203 10.7143457 11.95283203 10.7143457 13.16601562 11.94824219 C15.12214234 13.93972059 17.07092907 15.93786002 19.01367188 17.94238281 C15.09078929 22.64579407 11.00348492 27.08512232 6.63867188 31.37988281 C6.09339844 31.92064453 5.548125 32.46140625 4.98632812 33.01855469 C3.66443724 34.32885004 2.33939569 35.63596565 1.01367188 36.94238281 C-5.00838516 34.03957308 -8.77934524 30.09593685 -12.98632812 24.94238281 C-14.37851562 23.64300781 -14.37851562 23.64300781 -15.79882812 22.31738281 C-17.98632812 19.94238281 -17.98632812 19.94238281 -17.98632812 15.94238281 C-15.75304438 12.86133587 -12.94337046 10.2971157 -10.23632812 7.62988281 C-9.50671875 6.87642578 -8.77710938 6.12296875 -8.02539062 5.34667969 C-7.31640625 4.63962891 -6.60742188 3.93257813 -5.87695312 3.20410156 C-5.22758789 2.55401123 -4.57822266 1.9039209 -3.90917969 1.23413086 C-1.98632812 -0.05761719 -1.98632812 -0.05761719 0 0 Z " fill="#404B82" transform="translate(511.986328125,330.0576171875)"/>
<path d="M0 0 C6.6 0 13.2 0 20 0 C20 0.33 20 0.66 20 1 C14.06 1.33 8.12 1.66 2 2 C2 27.08 2 52.16 2 78 C2.33 55.56 2.66 33.12 3 10 C3.33 10 3.66 10 4 10 C4 34.75 4 59.5 4 85 C-33.62 85 -71.24 85 -110 85 C-109.67 83.68 -109.34 82.36 -109 81 C-73.03 81 -37.06 81 0 81 C0 54.27 0 27.54 0 0 Z " fill="#303D78" transform="translate(428,405)"/>
<path d="M0 0 C4.06219391 0.04520725 6.5258907 0.61209239 9.75 3.25 C12.22361688 6.96042531 12.29607278 9.94862675 11.75 14.25 C10.06726197 18.12029748 8.59630461 19.66296621 4.75 21.25 C1.67680117 21.77227887 -1.17898721 21.80289179 -4.25 21.25 C-7.00569447 19.06840855 -8.68588747 17.37822506 -10.25 14.25 C-10.75698467 9.09565588 -10.75698467 9.09565588 -10.25 6.25 C-7.8125 3.3125 -7.8125 3.3125 -5.25 1.25 C-3.68966377 -0.31033623 -2.16052864 0.04292441 0 0 Z " fill="#F6F6F6" transform="translate(669.25,585.75)"/>
<path d="M0 0 C3.62416894 1.64734952 6.12851416 3.45402683 8 7 C8.54440618 11.99039002 8.08139334 15.00560122 5 19 C0.76032983 21.82644678 -3.02086859 21.65911947 -8 21 C-11.55680172 18.89495409 -12.69468936 17.91593192 -14 14 C-14.6914329 6.85519333 -14.6914329 6.85519333 -11.625 3.0625 C-7.531976 -0.15344743 -5.22213247 -0.35404288 0 0 Z " fill="#F5F5F5" transform="translate(703,235)"/>
<path d="M0 0 C8.91 0 17.82 0 27 0 C27 0.66 27 1.32 27 2 C27.66 2.33 28.32 2.66 29 3 C21.08 3.33 13.16 3.66 5 4 C4.93941406 7.68414062 4.87882812 11.36828125 4.81640625 15.1640625 C4.75456983 18.73846391 4.6912016 22.31283512 4.62768555 25.88720703 C4.58441633 28.36829939 4.54273568 30.84941999 4.50268555 33.33056641 C4.44478879 36.90015161 4.38115019 40.46959573 4.31640625 44.0390625 C4.29133751 45.69876572 4.29133751 45.69876572 4.26576233 47.39199829 C4.17064257 52.35479545 4.03955501 57.12408007 3 62 C1.35 62 -0.3 62 -2 62 C-1.67 61.34 -1.34 60.68 -1 60 C-0.8800592 58.09091814 -0.82268712 56.17777752 -0.79467773 54.26513672 C-0.7647599 52.46349564 -0.7647599 52.46349564 -0.73423767 50.62545776 C-0.71752518 49.32335358 -0.70081268 48.02124939 -0.68359375 46.6796875 C-0.66302375 45.33732462 -0.64202727 43.99496821 -0.62062073 42.65261841 C-0.56540469 39.11811562 -0.51599342 35.58355443 -0.46777344 32.0489502 C-0.41755496 28.44273688 -0.36192363 24.8366074 -0.30664062 21.23046875 C-0.1985518 14.15370989 -0.0995256 7.07690528 0 0 Z " fill="#2E3C78" transform="translate(494,375)"/>
<path d="M0 0 C1.32 0 2.64 0 4 0 C3.6749605 0.74569811 3.349921 1.49139622 3.01503181 2.25969124 C1.59682848 7.4856539 1.73151018 12.45322614 1.75949097 17.84494019 C1.75778212 19.04654758 1.75607327 20.24815497 1.75431263 21.4861747 C1.75159101 24.81336791 1.75782984 28.14032509 1.76786876 31.46748972 C1.7765144 35.05841975 1.77358231 38.64934264 1.77206421 42.24028015 C1.77101606 48.45913287 1.77728531 54.67794358 1.78853989 60.89678574 C1.80480145 69.88815547 1.81000357 78.87950492 1.81251587 87.87088777 C1.81689194 102.45918409 1.83019866 117.04745802 1.84912109 131.63574219 C1.86748217 145.80598845 1.88163756 159.97622862 1.89013672 174.14648438 C1.89066217 175.02009774 1.89118761 175.8937111 1.89172898 176.7937976 C1.89433908 181.17650663 1.89686649 185.55921571 1.89935279 189.94192481 C1.92008255 226.29463234 1.95530569 262.64731443 2 299 C1.34 299 0.68 299 0 299 C0 200.33 0 101.66 0 0 Z " fill="#303E70" transform="translate(177,315)"/>
<path d="M0 0 C0.33 0 0.66 0 1 0 C1 18.81 1 37.62 1 57 C2.32 56.34 3.64 55.68 5 55 C7.63312517 54.79157833 10.16401995 54.6889072 12.79785156 54.68115234 C13.57872131 54.67110672 14.35959106 54.6610611 15.16412354 54.65071106 C17.73961669 54.61987355 20.31500585 54.60284244 22.890625 54.5859375 C24.67853694 54.5672263 26.46644004 54.54765292 28.2543335 54.5272522 C32.9560424 54.4759199 37.65777994 54.43630004 42.35961914 54.39910889 C47.15908905 54.35907614 51.95843973 54.30798046 56.7578125 54.2578125 C66.17179126 54.16104021 75.58583732 54.07663956 85 54 C85 55.32 85 56.64 85 58 C56.95 58 28.9 58 0 58 C0 38.86 0 19.72 0 0 Z " fill="#2F3C77" transform="translate(444,411)"/>
<path d="M0 0 C3.68069887 1.53643852 5.98775204 3.78150945 8.75 6.625 C9.54921875 7.44226563 10.3484375 8.25953125 11.171875 9.1015625 C11.77515625 9.72804688 12.3784375 10.35453125 13 11 C11.46356148 14.68069887 9.21849055 16.98775204 6.375 19.75 C5.55773437 20.54921875 4.74046875 21.3484375 3.8984375 22.171875 C3.27195312 22.77515625 2.64546875 23.3784375 2 24 C-1.63061667 22.46781315 -3.9863773 20.2816856 -6.75 17.5 C-7.54921875 16.7059375 -8.3484375 15.911875 -9.171875 15.09375 C-11 13 -11 13 -11 11 C-9.35546875 9.4140625 -9.35546875 9.4140625 -7.1875 7.625 C-4.35520187 5.2828081 -2.10737561 3.01813415 0 0 Z " fill="#F3F5FA" transform="translate(381,507)"/>
<path d="M0 0 C1.65 0 3.3 0 5 0 C4.34 1.32 3.68 2.64 3 4 C3.33 4 3.66 4 4 4 C4 27.1 4 50.2 4 74 C2.02 74.495 2.02 74.495 0 75 C0 50.25 0 25.5 0 0 Z " fill="#303D76" transform="translate(397,378)"/>
<path d="M0 0 C0.33 0 0.66 0 1 0 C1.02505615 0.89831543 1.0501123 1.79663086 1.07592773 2.72216797 C1.17098693 6.05074869 1.27022421 9.37914994 1.37231445 12.70751953 C1.41566231 14.1488762 1.45733752 15.59028418 1.49731445 17.03173828 C1.55502088 19.10204541 1.61871371 21.17209432 1.68359375 23.2421875 C1.72025146 24.4885498 1.75690918 25.73491211 1.79467773 27.01904297 C1.80289479 29.92636942 1.80289479 29.92636942 3 32 C126.255 32.495 126.255 32.495 252 33 C252 33.33 252 33.66 252 34 C168.84 34 85.68 34 0 34 C0 22.78 0 11.56 0 0 Z " fill="#303D71" transform="translate(772,229)"/>
<path d="M0 0 C3.68069887 1.53643852 5.98775204 3.78150945 8.75 6.625 C9.54921875 7.44226563 10.3484375 8.25953125 11.171875 9.1015625 C11.77515625 9.72804688 12.3784375 10.35453125 13 11 C9.49102731 15.18423892 5.91939465 19.19588166 2 23 C-1.68069887 21.46356148 -3.98775204 19.21849055 -6.75 16.375 C-7.54921875 15.55773437 -8.3484375 14.74046875 -9.171875 13.8984375 C-9.77515625 13.27195312 -10.3784375 12.64546875 -11 12 C-7.49102731 7.81576108 -3.91939465 3.80411834 0 0 Z " fill="#F8FAFD" transform="translate(511,337)"/>
<path d="M0 0 C12.784802 -0.42147699 12.784802 -0.42147699 17 3 C17.55723448 7.38822151 17.77235685 9.71273859 15.5 13.5 C15.005 13.995 14.51 14.49 14 15 C15.98 17.97 15.98 17.97 18 21 C16.68 21 15.36 21 14 21 C11 17.78571429 11 17.78571429 11 15 C8.69 15 6.38 15 4 15 C4 16.98 4 18.96 4 21 C2.68 21 1.36 21 0 21 C0 14.07 0 7.14 0 0 Z " fill="#333333" transform="translate(564,586)"/>
<path d="M0 0 C0.66 0 1.32 0 2 0 C2 18.48 2 36.96 2 56 C6.62 56 11.24 56 16 56 C15.67 56.66 15.34 57.32 15 58 C16.32 58.33 17.64 58.66 19 59 C19.33 39.86 19.66 20.72 20 1 C20.33 1 20.66 1 21 1 C21 20.8 21 40.6 21 61 C13.08 61 5.16 61 -3 61 C-2.34 58.03 -1.68 55.06 -1 52 C-0.68764558 49.00041903 -0.68764558 49.00041903 -0.68115234 46.20483398 C-0.66128265 45.16443466 -0.64141296 44.12403534 -0.62094116 43.05210876 C-0.60938995 41.96112381 -0.59783875 40.87013885 -0.5859375 39.74609375 C-0.56657135 38.60463394 -0.5472052 37.46317413 -0.5272522 36.28712463 C-0.46786402 32.67065715 -0.42123465 29.05415714 -0.375 25.4375 C-0.3367827 22.97329404 -0.29772883 20.5091009 -0.2578125 18.04492188 C-0.16219628 12.03006244 -0.07703151 6.01512464 0 0 Z " fill="#4A5586" transform="translate(478,378)"/>
<path d="M0 0 C12.59717314 -0.27385159 12.59717314 -0.27385159 16 2 C17.50662097 5.01324195 17.17770373 7.68286377 17 11 C16.34 11.66 15.68 12.32 15 13 C15.36276645 15.82957829 16.09694764 18.29084291 17 21 C15.125 20.8125 15.125 20.8125 13 20 C11.75 17.4375 11.75 17.4375 11 15 C8.36 15 5.72 15 3 15 C3 16.98 3 18.96 3 21 C2.01 21 1.02 21 0 21 C0 14.07 0 7.14 0 0 Z " fill="#373737" transform="translate(483,586)"/>
<path d="M0 0 C11.03030303 -0.48484848 11.03030303 -0.48484848 15.25 1.625 C17.49369241 4.67001113 17.5518663 6.29461199 17 10 C16.01 11.485 16.01 11.485 15 13 C14.34 13 13.68 13 13 13 C14.32 15.64 15.64 18.28 17 21 C15.68 21 14.36 21 13 21 C12.566875 20.195625 12.13375 19.39125 11.6875 18.5625 C10.15327049 15.58444169 10.15327049 15.58444169 6.3125 15.1875 C5.219375 15.125625 4.12625 15.06375 3 15 C3 16.98 3 18.96 3 21 C2.01 21 1.02 21 0 21 C0 14.07 0 7.14 0 0 Z " fill="#3C3C3C" transform="translate(716,235)"/>
<path d="M0 0 C11.88452656 -0.4295612 11.88452656 -0.4295612 16 3 C17 4 17 4 17.25 6.8125 C16.97826344 10.27714111 16.31309135 11.49415104 14 14 C14.309375 14.598125 14.61875 15.19625 14.9375 15.8125 C16 18 16 18 17 21 C15.1875 20.75 15.1875 20.75 13 20 C12.566875 19.34 12.13375 18.68 11.6875 18 C10.0229421 15.60758753 10.0229421 15.60758753 6.3125 15.25 C5.219375 15.1675 4.12625 15.085 3 15 C3 16.98 3 18.96 3 21 C2.01 21 1.02 21 0 21 C0 14.07 0 7.14 0 0 Z " fill="#393939" transform="translate(507,235)"/>
<path d="M0 0 C1.98 0 3.96 0 6 0 C6 0.33 6 0.66 6 1 C8.97 1.33 11.94 1.66 15 2 C15 2.33 15 2.66 15 3 C11.37 3 7.74 3 4 3 C4 29.4 4 55.8 4 83 C3.67 83 3.34 83 3 83 C2.67 80.69 2.34 78.38 2 76 C1.01 76.99 1.01 76.99 0 78 C0 52.26 0 26.52 0 0 Z " fill="#424E86" transform="translate(429,407)"/>
<path d="M0 0 C10.9947644 -0.48328635 10.9947644 -0.48328635 15.25 1.5625 C17.6502204 4.90566413 17.58527499 6.97623447 17 11 C15.16884793 13.61593153 14.09031634 13.96989455 11 15 C9.60560336 15.06665376 8.20830125 15.08538199 6.8125 15.0625 C4.9253125 15.0315625 4.9253125 15.0315625 3 15 C3 16.98 3 18.96 3 21 C2.01 21 1.02 21 0 21 C0 14.07 0 7.14 0 0 Z " fill="#404040" transform="translate(593,235)"/>
<path d="M0 0 C1.32 0.33 2.64 0.66 4 1 C5.265625 3.65234375 5.265625 3.65234375 6.25 6.9375 C6.58515625 8.01902344 6.9203125 9.10054687 7.265625 10.21484375 C8 13 8 13 8 15 C8.66 15 9.32 15 10 15 C10.20496094 14.16855469 10.40992188 13.33710937 10.62109375 12.48046875 C10.89050781 11.39378906 11.15992188 10.30710937 11.4375 9.1875 C11.70433594 8.10855469 11.97117187 7.02960937 12.24609375 5.91796875 C12.76077412 3.9259157 13.34937175 1.95188476 14 0 C15.32 0 16.64 0 18 0 C19.65 4.62 21.3 9.24 23 14 C25.38829052 9.38263833 27.50111257 4.99629144 29 0 C29.99 0.33 30.98 0.66 32 1 C29.69 7.6 27.38 14.2 25 21 C23.68 20.67 22.36 20.34 21 20 C19.734375 17.34765625 19.734375 17.34765625 18.75 14.0625 C18.41484375 12.98097656 18.0796875 11.89945313 17.734375 10.78515625 C17 8 17 8 17 6 C16.34 6 15.68 6 15 6 C14.52029877 7.74985354 14.04126076 9.49988891 13.5625 11.25 C13.29566406 12.22453125 13.02882813 13.1990625 12.75390625 14.203125 C12.14455416 16.46372653 11.55761745 18.72622009 11 21 C9.68 21 8.36 21 7 21 C4.69 14.07 2.38 7.14 0 0 Z " fill="#373737" transform="translate(683,586)"/>
<path d="M0 0 C1.98 0 3.96 0 6 0 C6 12.21 6 24.42 6 37 C4.02 37 2.04 37 0 37 C0 24.79 0 12.58 0 0 Z " fill="#F9F272" transform="translate(868,304)"/>
<path d="M0 0 C0.99 0.33 1.98 0.66 3 1 C2.48514682 5.03657082 1.53647628 6.95214477 -1.37890625 9.76953125 C-2.38920898 10.76049805 -2.38920898 10.76049805 -3.41992188 11.77148438 C-4.12697266 12.44501953 -4.83402344 13.11855469 -5.5625 13.8125 C-6.27341797 14.50537109 -6.98433594 15.19824219 -7.71679688 15.91210938 C-9.46918312 17.6174517 -11.23021469 19.31275176 -13 21 C-15.59586265 19.80482157 -17.03448554 18.96228144 -19 16.8125 C-19.66 16.214375 -20.32 15.61625 -21 15 C-23.21858253 15.13641377 -23.21858253 15.13641377 -25 16 C-25.93423645 12.98968256 -26.04449911 12.13349732 -25 9 C-25.66 9 -26.32 9 -27 9 C-27 7.35 -27 5.7 -27 4 C-23.12488273 4.54984772 -21.40423494 6.27555331 -18.75 9.0625 C-18.04359375 9.79597656 -17.3371875 10.52945313 -16.609375 11.28515625 C-16.07828125 11.85105469 -15.5471875 12.41695312 -15 13 C-11.63283065 11.54616625 -9.47729955 9.69038509 -6.9375 7.0625 C-6.26589844 6.37285156 -5.59429687 5.68320312 -4.90234375 4.97265625 C-4.27457031 4.32167969 -3.64679688 3.67070313 -3 3 C-2.00223463 1.99777035 -1.0031201 0.99687013 0 0 Z " fill="#36427C" transform="translate(396,517)"/>
<path d="M0 0 C0.99 0 1.98 0 3 0 C4.82421875 2.5546875 4.82421875 2.5546875 6.6875 5.875 C7.31011719 6.96554688 7.93273437 8.05609375 8.57421875 9.1796875 C10 12 10 12 10 14 C13.41697637 10.9287891 15.28807753 7.15423568 17.5 3.1796875 C19 1 19 1 22 0 C22 6.93 22 13.86 22 21 C21.01 21 20.02 21 19 21 C18.67 17.04 18.34 13.08 18 9 C15.03 13.455 15.03 13.455 12 18 C7.38226158 16.46075386 6.42585496 13.13050979 4 9 C3.67 12.96 3.34 16.92 3 21 C2.01 21 1.02 21 0 21 C0 14.07 0 7.14 0 0 Z " fill="#3E3E3E" transform="translate(738,235)"/>
<path d="M0 0 C4.74360811 1.18590203 6.29851489 3.28490649 9.1875 6.9375 C9.86329102 7.76411133 9.86329102 7.76411133 10.55273438 8.60742188 C13.81849315 12.6369863 13.81849315 12.6369863 15 15 C15.33 10.05 15.66 5.1 16 0 C16.99 0 17.98 0 19 0 C19 6.93 19 13.86 19 21 C17.68 21 16.36 21 15 21 C13.06450375 18.86508899 11.41502911 16.82813664 9.75 14.5 C9.29109375 13.87996094 8.8321875 13.25992188 8.359375 12.62109375 C7.22809239 11.08914855 6.11251346 9.54562939 5 8 C4.67 12.29 4.34 16.58 4 21 C2.68 21 1.36 21 0 21 C0 14.07 0 7.14 0 0 Z " fill="#484848" transform="translate(560,235)"/>
<path d="M0 0 C1.86621094 0.26806641 1.86621094 0.26806641 4 1 C5.18847656 2.62646484 5.18847656 2.62646484 6.140625 4.7109375 C6.66269531 5.83628906 6.66269531 5.83628906 7.1953125 6.984375 C7.54335938 7.77328125 7.89140625 8.5621875 8.25 9.375 C8.61351562 10.15617188 8.97703125 10.93734375 9.3515625 11.7421875 C12 17.55680216 12 17.55680216 12 21 C11.01 21 10.02 21 9 21 C8.505 18.525 8.505 18.525 8 16 C6.04081032 16.05991406 4.08248471 16.14867138 2.125 16.25 C1.03445313 16.29640625 -0.05609375 16.3428125 -1.1796875 16.390625 C-4.1332065 16.68846128 -4.1332065 16.68846128 -5.3828125 19.046875 C-5.58648438 19.69140625 -5.79015625 20.3359375 -6 21 C-6.99 21 -7.98 21 -9 21 C-6.76686274 13.55620912 -3.59727921 6.88023305 0 0 Z " fill="#3E3E3E" transform="translate(639,235)"/>
<path d="M0 0 C1.86621094 0.26806641 1.86621094 0.26806641 4 1 C5.18847656 2.62646484 5.18847656 2.62646484 6.140625 4.7109375 C6.66269531 5.83628906 6.66269531 5.83628906 7.1953125 6.984375 C7.54335938 7.77328125 7.89140625 8.5621875 8.25 9.375 C8.61351562 10.15617188 8.97703125 10.93734375 9.3515625 11.7421875 C12 17.55680216 12 17.55680216 12 21 C11.01 21 10.02 21 9 21 C8.505 18.525 8.505 18.525 8 16 C6.04081032 16.05991406 4.08248471 16.14867138 2.125 16.25 C1.03445313 16.29640625 -0.05609375 16.3428125 -1.1796875 16.390625 C-4.1332065 16.68846128 -4.1332065 16.68846128 -5.3828125 19.046875 C-5.58648437 19.69140625 -5.79015625 20.3359375 -6 21 C-6.99 21 -7.98 21 -9 21 C-6.76686274 13.55620912 -3.59727921 6.88023305 0 0 Z " fill="#383838" transform="translate(430,235)"/>
<path d="M0 0 C5.46898941 0.37689516 7.67434261 2.11179819 11.375 6.0625 C12.68597656 7.44115234 12.68597656 7.44115234 14.0234375 8.84765625 C14.67570313 9.55792969 15.32796875 10.26820313 16 11 C10.44964797 17.78376359 4.23557973 23.85522968 -2 30 C-5.16115776 28.63016497 -5.9927092 28.0109362 -8 25 C-6.68 25.33 -5.36 25.66 -4 26 C-4 25.34 -4 24.68 -4 24 C-3.01 24 -2.02 24 -1 24 C-0.91878906 23.42765625 -0.83757813 22.8553125 -0.75390625 22.265625 C0.23275695 19.30052315 1.81104466 17.89424319 4.0625 15.75 C4.79597656 15.04359375 5.52945313 14.3371875 6.28515625 13.609375 C6.85105469 13.07828125 7.41695312 12.5471875 8 12 C7.04270084 10.87411986 6.08412105 9.7493285 5.125 8.625 C4.32449219 7.68527344 4.32449219 7.68527344 3.5078125 6.7265625 C2.38567993 5.44163349 1.20628025 4.20628025 0 3 C0 2.01 0 1.02 0 0 Z " fill="#39457D" transform="translate(515,337)"/>
<path d="M0 0 C1.32 0 2.64 0 4 0 C5.50626117 3.12202006 7.00393243 6.24808399 8.5 9.375 C8.92925781 10.26445312 9.35851562 11.15390625 9.80078125 12.0703125 C10.40986328 13.34648437 10.40986328 13.34648437 11.03125 14.6484375 C11.40830078 15.43395996 11.78535156 16.21948242 12.17382812 17.02880859 C13 19 13 19 13 21 C11.0625 20.6875 11.0625 20.6875 9 20 C8.67 19.01 8.34 18.02 8 17 C4.04 16.67 0.08 16.34 -4 16 C-4.33 17.65 -4.66 19.3 -5 21 C-5.99 21 -6.98 21 -8 21 C-7.38632609 16.83468831 -5.95369774 13.65234354 -4 9.9375 C-1.48735429 5.15600671 -1.48735429 5.15600671 0 0 Z " fill="#343434" transform="translate(544,235)"/>
<path d="M0 0 C5.28 0 10.56 0 16 0 C16 0.99 16 1.98 16 3 C12.04 3 8.08 3 4 3 C4 4.98 4 6.96 4 9 C7.3 9 10.6 9 14 9 C14 9.99 14 10.98 14 12 C10.7 12 7.4 12 4 12 C4 13.98 4 15.96 4 18 C7.96 18 11.92 18 16 18 C16 18.99 16 19.98 16 21 C10.72 21 5.44 21 0 21 C0 14.07 0 7.14 0 0 Z " fill="#616161" transform="translate(607,586)"/>
<path d="M0 0 C0.02544148 7.11669142 0.04290527 14.23337102 0.05493164 21.35009766 C0.05994752 23.76904743 0.06676179 26.18799419 0.07543945 28.60693359 C0.08762545 32.09212998 0.09325589 35.57728613 0.09765625 39.0625 C0.10281754 40.13677246 0.10797882 41.21104492 0.11329651 42.31787109 C0.11371544 47.97781173 -0.15036027 53.40237353 -1 59 C-1.66 59 -2.32 59 -3 59 C-3 40.52 -3 22.04 -3 3 C-6.63 2.67 -10.26 2.34 -14 2 C-14 1.67 -14 1.34 -14 1 C-9.23013567 0.04602713 -4.83855385 -0.03998805 0 0 Z " fill="#2F3C76" transform="translate(478,379)"/>
<path d="M0 0 C4.94540619 1.23635155 6.40771631 3.64196624 9.25 7.5625 C9.70890625 8.17802734 10.1678125 8.79355469 10.640625 9.42773438 C11.76971415 10.94494792 12.88611143 12.47159183 14 14 C14.33 9.38 14.66 4.76 15 0 C15.99 0 16.98 0 18 0 C18 6.93 18 13.86 18 21 C13.05459381 19.76364845 11.59228369 17.35803376 8.75 13.4375 C8.29109375 12.82197266 7.8321875 12.20644531 7.359375 11.57226562 C6.23028585 10.05505208 5.11388857 8.52840817 4 7 C3.67 11.62 3.34 16.24 3 21 C2.01 21 1.02 21 0 21 C0 14.07 0 7.14 0 0 Z " fill="#353535" transform="translate(636,586)"/>
<path d="M0 0 C1.65 1.65 3.3 3.3 5 5 C4.0479279 6.00596297 3.08812654 7.00461563 2.125 8 C1.59132813 8.556875 1.05765625 9.11375 0.5078125 9.6875 C-1 11 -1 11 -3 11 C-0.69 13.64 1.62 16.28 4 19 C3.01 21.475 3.01 21.475 2 24 C-2.01268958 23.45575015 -3.98416846 21.47927799 -6.8125 18.6875 C-7.62332031 17.90761719 -8.43414062 17.12773438 -9.26953125 16.32421875 C-11 14 -11 14 -11.078125 12.03515625 C-9.50757494 9.07045849 -7.34879875 7.06973044 -4.9375 4.75 C-4.01839844 3.85796875 -3.09929687 2.9659375 -2.15234375 2.046875 C-1.44207031 1.37140625 -0.73179687 0.6959375 0 0 Z " fill="#EBEFF7" transform="translate(366,507)"/>
<path d="M0 0 C-0.609375 1.921875 -0.609375 1.921875 -2 4 C-4.828125 4.828125 -4.828125 4.828125 -8.25 5.25 C-9.92835938 5.47429687 -9.92835938 5.47429687 -11.640625 5.703125 C-14.74986833 5.97789534 -17.87863927 6 -21 6 C-21 31.41 -21 56.82 -21 83 C-21.33 83 -21.66 83 -22 83 C-22.13061592 73.14264572 -22.26101974 63.28528866 -22.39115143 53.42792797 C-22.45158088 48.85095775 -22.51208388 44.27398852 -22.57275391 39.69702148 C-22.63128114 35.28150467 -22.68961657 30.86598537 -22.74781799 26.45046425 C-22.77007694 24.76433535 -22.79240545 23.07820736 -22.81480408 21.39208031 C-22.84612026 19.03376881 -22.87719099 16.67545419 -22.90820312 14.31713867 C-22.91755386 13.61726837 -22.9269046 12.91739807 -22.9365387 12.19631958 C-22.97226112 9.46390721 -23 6.73268886 -23 4 C-22.67 3.67 -22.34 3.34 -22 3 C-22.66 2.34 -23.32 1.68 -24 1 C-16.02509872 -0.32915021 -8.05813281 -0.08801359 0 0 Z " fill="#4A5688" transform="translate(423,376)"/>
<path d="M0 0 C4.95 0 9.9 0 15 0 C15 0.99 15 1.98 15 3 C11.37 3 7.74 3 4 3 C4 4.98 4 6.96 4 9 C7.3 9 10.6 9 14 9 C14 9.99 14 10.98 14 12 C10.37 12 6.74 12 3 12 C3 13.98 3 15.96 3 18 C7.29 18 11.58 18 16 18 C16 18.99 16 19.98 16 21 C10.72 21 5.44 21 0 21 C0 14.07 0 7.14 0 0 Z " fill="#414141" transform="translate(544,586)"/>
<path d="M0 0 C4.06219391 0.04520725 6.5258907 0.61209239 9.75 3.25 C12.22361688 6.96042531 12.29607278 9.94862675 11.75 14.25 C10.06726197 18.12029748 8.59630461 19.66296621 4.75 21.25 C1.67680117 21.77227887 -1.17898721 21.80289179 -4.25 21.25 C-7.00569447 19.06840855 -8.68588747 17.37822506 -10.25 14.25 C-10.75698467 9.09565588 -10.75698467 9.09565588 -10.25 6.25 C-7.8125 3.3125 -7.8125 3.3125 -5.25 1.25 C-3.68966377 -0.31033623 -2.16052864 0.04292441 0 0 Z M-5.75 4.8125 C-7.83392818 8.19888329 -7.80802097 10.34385318 -7.25 14.25 C-5.8969872 16.85314994 -5.8969872 16.85314994 -3.25 18.25 C0.79560357 19.05414661 3.72873756 18.88828902 7.25 16.6875 C9.33392818 13.30111671 9.30802097 11.15614682 8.75 7.25 C7.3969872 4.64685006 7.3969872 4.64685006 4.75 3.25 C0.70439643 2.44585339 -2.22873756 2.61171098 -5.75 4.8125 Z " fill="#3A3A3A" transform="translate(669.25,585.75)"/>
<path d="M0 0 C6.68441679 0.59718647 12.94719378 1.81608067 19.4375 3.5 C20.78231445 3.83837891 20.78231445 3.83837891 22.15429688 4.18359375 C28.70346102 5.85173051 28.70346102 5.85173051 31 7 C31 8.65 31 10.3 31 12 C26.0135985 12.31828095 22.42693016 11.63213635 17.75390625 9.93359375 C14.18940748 8.72520339 10.5767622 7.76759276 6.9375 6.8125 C6.25751953 6.63364258 5.57753906 6.45478516 4.87695312 6.27050781 C3.25189414 5.84473904 1.62603142 5.42203978 0 5 C0 3.35 0 1.7 0 0 Z " fill="#FAF056" transform="translate(799,338)"/>
<path d="M0 0 C3.62416894 1.64734952 6.12851416 3.45402683 8 7 C8.54440618 11.99039002 8.08139334 15.00560122 5 19 C0.76032983 21.82644678 -3.02086859 21.65911947 -8 21 C-11.55680172 18.89495409 -12.69468936 17.91593192 -14 14 C-14.6914329 6.85519333 -14.6914329 6.85519333 -11.625 3.0625 C-7.531976 -0.15344743 -5.22213247 -0.35404288 0 0 Z M-9.5 4.5625 C-11.61006839 7.99136114 -11.62491523 10.04220351 -11 14 C-9.10350449 17.14658666 -9.10350449 17.14658666 -6 19 C-2.04169355 19.06944397 0.14507816 18.5699479 3.4375 16.375 C5.63274809 13.0382229 5.55921637 10.91451456 5 7 C3.6469872 4.39685006 3.6469872 4.39685006 1 3 C-3.04560357 2.19585339 -5.97873756 2.36171098 -9.5 4.5625 Z " fill="#363636" transform="translate(703,235)"/>
<path d="M0 0 C2.2578125 0.1328125 2.2578125 0.1328125 5 1 C6.9921875 3.5546875 6.9921875 3.5546875 8.875 6.875 C9.55869367 8.05798726 10.24361321 9.24026679 10.9296875 10.421875 C11.2709668 11.01935547 11.61224609 11.61683594 11.96386719 12.23242188 C14.07541446 15.83459017 16.43931584 19.28147071 18.75 22.7578125 C20 25 20 25 20 28 C18.68 28.33 17.36 28.66 16 29 C11.63374914 22.98556174 7.50781554 16.81984535 3.5 10.5625 C2.81381592 9.51545898 2.81381592 9.51545898 2.11376953 8.44726562 C0.9949487 6.68020834 -0.01230448 4.8435588 -1 3 C-0.67 2.01 -0.34 1.02 0 0 Z " fill="#F8F071" transform="translate(833,314)"/>
<path d="M0 0 C1.32 0.33 2.64 0.66 4 1 C3.42415568 3.38564077 2.77772405 5.66682784 2 8 C1.34 8 0.68 8 0 8 C-0.268125 8.70125 -0.53625 9.4025 -0.8125 10.125 C-3.68917744 17.08958749 -7.60812816 22.91154206 -12 29 C-13.32 28.67 -14.64 28.34 -16 28 C-15.41892368 24.2397015 -14.34800504 21.46964968 -12.4375 18.1875 C-11.98246094 17.39730469 -11.52742187 16.60710937 -11.05859375 15.79296875 C-10.70925781 15.20128906 -10.35992188 14.60960937 -10 14 C-9.34 14 -8.68 14 -8 14 C-7.79375 13.175 -7.5875 12.35 -7.375 11.5 C-5.62311015 7.04064403 -2.98989535 3.70446154 0 0 Z " fill="#F9F06B" transform="translate(904,314)"/>
<path d="M0 0 C-0.33 1.65 -0.66 3.3 -1 5 C-5.05947837 6.17736056 -9.12302929 7.3400023 -13.1875 8.5 C-14.33798828 8.83386719 -15.48847656 9.16773438 -16.67382812 9.51171875 C-17.78564453 9.82753906 -18.89746094 10.14335937 -20.04296875 10.46875 C-21.57473755 10.90864258 -21.57473755 10.90864258 -23.13745117 11.35742188 C-25.86914953 11.970627 -28.21302737 12.1253578 -31 12 C-31 10.35 -31 8.7 -31 7 C-26.77363854 5.82300462 -22.54349462 4.66021981 -18.3125 3.5 C-17.11431641 3.16613281 -15.91613281 2.83226562 -14.68164062 2.48828125 C-13.52470703 2.17246094 -12.36777344 1.85664063 -11.17578125 1.53125 C-10.11270752 1.23798828 -9.04963379 0.94472656 -7.9543457 0.64257812 C-5.1903768 0.04140747 -2.81542433 -0.12745656 0 0 Z " fill="#F9EF6D" transform="translate(941,338)"/>
<path d="M0 0 C4.95 0 9.9 0 15 0 C15 0.99 15 1.98 15 3 C11.04 3 7.08 3 3 3 C3 4.98 3 6.96 3 9 C6.63 9 10.26 9 14 9 C14 9.99 14 10.98 14 12 C10.37 12 6.74 12 3 12 C3 14.31 3 16.62 3 19 C6.96 19 10.92 19 15 19 C15 19.66 15 20.32 15 21 C10.05 21 5.1 21 0 21 C0 14.07 0 7.14 0 0 Z " fill="#3C3C3C" transform="translate(505,586)"/>
<path d="M0 0 C4.95 0 9.9 0 15 0 C15 0.99 15 1.98 15 3 C11.04 3 7.08 3 3 3 C3 4.98 3 6.96 3 9 C6.3 9 9.6 9 13 9 C13 9.99 13 10.98 13 12 C9.7 12 6.4 12 3 12 C3 14.31 3 16.62 3 19 C6.96 19 10.92 19 15 19 C15 19.66 15 20.32 15 21 C10.05 21 5.1 21 0 21 C0 14.07 0 7.14 0 0 Z " fill="#414141" transform="translate(487,235)"/>
<path d="M0 0 C3.48584286 0.03134751 6.09479083 0.60989542 9.25 2.1875 C8.92 3.1775 8.59 4.1675 8.25 5.1875 C7.26 4.8575 6.27 4.5275 5.25 4.1875 C1.71351041 3.81673899 -1.56065025 3.55565795 -4.75 5.25 C-6.35856522 8.36659511 -6.17213381 10.75012469 -5.75 14.1875 C-4.3969872 16.79064994 -4.3969872 16.79064994 -1.75 18.1875 C1.00845833 18.50861824 3.45543968 18.37380402 6.25 18.1875 C6.25 15.8775 6.25 13.5675 6.25 11.1875 C7.24 11.1875 8.23 11.1875 9.25 11.1875 C9.54296875 17.2421875 9.54296875 17.2421875 9.25 19.1875 C5.01032983 22.01394678 1.22913141 21.84661947 -3.75 21.1875 C-7.30680172 19.08245409 -8.44468936 18.10343192 -9.75 14.1875 C-10.25474898 8.97176052 -10.25474898 8.97176052 -9.75 6.1875 C-7.3125 3.25 -7.3125 3.25 -4.75 1.1875 C-3.75 0.1875 -3.75 0.1875 0 0 Z " fill="#282828" transform="translate(471.75,234.8125)"/>
<path d="M0 0 C1.16015625 0.02320313 1.16015625 0.02320313 2.34375 0.046875 C4.5 0.25 4.5 0.25 7.5 1.25 C7.17 2.24 6.84 3.23 6.5 4.25 C3.2 4.25 -0.1 4.25 -3.5 4.25 C-3.17 5.57 -2.84 6.89 -2.5 8.25 C-0.48368284 9.31650781 -0.48368284 9.31650781 1.9375 9.875 C6.32119205 11.07119205 6.32119205 11.07119205 8.5 13.25 C8.3125 16.25 8.3125 16.25 7.5 19.25 C4.18629 21.45914 3.1553979 21.47481553 -0.6875 21.375 C-1.58855469 21.35695313 -2.48960937 21.33890625 -3.41796875 21.3203125 C-4.10503906 21.29710937 -4.79210937 21.27390625 -5.5 21.25 C-6.16 19.93 -6.82 18.61 -7.5 17.25 C-3.54 17.25 0.42 17.25 4.5 17.25 C4.5 16.26 4.5 15.27 4.5 14.25 C3.88511719 14.06824219 3.27023437 13.88648438 2.63671875 13.69921875 C1.82847656 13.44785156 1.02023437 13.19648437 0.1875 12.9375 C-0.61300781 12.69386719 -1.41351562 12.45023438 -2.23828125 12.19921875 C-4.63879776 11.19174809 -5.88976856 10.2794028 -7.5 8.25 C-7.875 5.75 -7.875 5.75 -7.5 3.25 C-5.24383638 0.27016126 -3.66862335 -0.12228745 0 0 Z " fill="#414141" transform="translate(531.5,585.75)"/>
<path d="M0 0 C9.24 0 18.48 0 28 0 C28 1.65 28 3.3 28 5 C18.76 5 9.52 5 0 5 C0 3.35 0 1.7 0 0 Z " fill="#F8F06B" transform="translate(940,364)"/>
<path d="M0 0 C4.95 0 9.9 0 15 0 C15 0.99 15 1.98 15 3 C11.04 3 7.08 3 3 3 C3 5.31 3 7.62 3 10 C6.63 10 10.26 10 14 10 C14 10.99 14 11.98 14 13 C10.7 13 7.4 13 4 13 C4 15.64 4 18.28 4 21 C2.68 21 1.36 21 0 21 C0 14.07 0 7.14 0 0 Z " fill="#4B4B4B" transform="translate(671,235)"/>
<path d="M0 0 C8.91 0 17.82 0 27 0 C27 1.65 27 3.3 27 5 C18.09 5 9.18 5 0 5 C0 3.35 0 1.7 0 0 Z " fill="#F8F069" transform="translate(774,364)"/>
<path d="M0 0 C0.99 0 1.98 0 3 0 C5.31 5.28 7.62 10.56 10 16 C12.31 10.72 14.62 5.44 17 0 C17.99 0 18.98 0 20 0 C19.32512263 4.81919471 17.42034091 8.91883866 15.4375 13.3125 C15.10814453 14.05306641 14.77878906 14.79363281 14.43945312 15.55664062 C13.63082877 17.37311562 12.81602884 19.18683931 12 21 C10.68 21 9.36 21 8 21 C6.65757579 18.06657102 5.32765933 15.12763748 4 12.1875 C3.6184375 11.35412109 3.236875 10.52074219 2.84375 9.66210938 C2.4828125 8.85966797 2.121875 8.05722656 1.75 7.23046875 C1.41484375 6.49207764 1.0796875 5.75368652 0.734375 4.99291992 C0 3 0 3 0 0 Z " fill="#373737" transform="translate(584,586)"/>
<path d="M0 0 C5.61 0 11.22 0 17 0 C17 0.99 17 1.98 17 3 C14.69 3 12.38 3 10 3 C10 8.94 10 14.88 10 21 C9.01 21 8.02 21 7 21 C7 15.06 7 9.12 7 3 C4.69 3 2.38 3 0 3 C0 2.01 0 1.02 0 0 Z " fill="#2F2F2F" transform="translate(651,235)"/>
<path d="M0 0 C0.99 0 1.98 0 3 0 C3 6.93 3 13.86 3 21 C1.68 21 0.36 21 -1 21 C-2.921875 19.03125 -2.921875 19.03125 -4.75 16.5 C-5.67039062 15.24703125 -5.67039062 15.24703125 -6.609375 13.96875 C-7.29773438 12.99421875 -7.29773438 12.99421875 -8 12 C-7.34 10.68 -6.68 9.36 -6 8 C-3.525 11.465 -3.525 11.465 -1 15 C-0.67 10.05 -0.34 5.1 0 0 Z " fill="#3E3E3E" transform="translate(576,235)"/>
<path d="M0 0 C0.99 0 1.98 0 3 0 C3 5.94 3 11.88 3 18 C6.63 18 10.26 18 14 18 C14 18.99 14 19.98 14 21 C9.38 21 4.76 21 0 21 C0 14.07 0 7.14 0 0 Z " fill="#404040" transform="translate(615,235)"/>
<path d="M0 0 C6.8359375 -0.1953125 6.8359375 -0.1953125 9 0 C11 2 11 2 11.3125 4.5 C11.1578125 5.7375 11.1578125 5.7375 11 7 C7.91111478 9.05925681 7.29064073 9.2390374 3.8125 9.125 C1.9253125 9.063125 1.9253125 9.063125 0 9 C0 6.03 0 3.06 0 0 Z " fill="#F2F2F2" transform="translate(486,589)"/>
<path d="M0 0 C6.8359375 -0.1953125 6.8359375 -0.1953125 9 0 C11 2 11 2 11.3125 4.5 C11.1578125 5.7375 11.1578125 5.7375 11 7 C7.91111478 9.05925681 7.29064073 9.2390374 3.8125 9.125 C1.9253125 9.063125 1.9253125 9.063125 0 9 C0 6.03 0 3.06 0 0 Z " fill="#F3F3F3" transform="translate(596,238)"/>
<path d="M0 0 C1.258125 -0.04125 2.51625 -0.0825 3.8125 -0.125 C4.52019531 -0.14820313 5.22789062 -0.17140625 5.95703125 -0.1953125 C8 0 8 0 11 2 C11.375 4.5 11.375 4.5 11 7 C7.91111478 9.05925681 7.29064073 9.2390374 3.8125 9.125 C1.9253125 9.063125 1.9253125 9.063125 0 9 C0 6.03 0 3.06 0 0 Z " fill="#F4F4F4" transform="translate(719,238)"/>
<path d="M0 0 C1.258125 -0.04125 2.51625 -0.0825 3.8125 -0.125 C4.52019531 -0.14820313 5.22789062 -0.17140625 5.95703125 -0.1953125 C8 0 8 0 11 2 C11.375 4.5 11.375 4.5 11 7 C7.91111478 9.05925681 7.29064073 9.2390374 3.8125 9.125 C1.9253125 9.063125 1.9253125 9.063125 0 9 C0 6.03 0 3.06 0 0 Z " fill="#F5F5F5" transform="translate(510,238)"/>
<path d="M0 0 C0.33 0 0.66 0 1 0 C1.33 23.1 1.66 46.2 2 70 C4.97 70 7.94 70 11 70 C11 70.33 11 70.66 11 71 C5.555 71.495 5.555 71.495 0 72 C0 48.24 0 24.48 0 0 Z " fill="#364074" transform="translate(658,431)"/>
<path d="M0 0 C1.60004883 0.00966797 1.60004883 0.00966797 3.23242188 0.01953125 C4.88661133 0.04466797 4.88661133 0.04466797 6.57421875 0.0703125 C7.69634766 0.07933594 8.81847656 0.08835937 9.97460938 0.09765625 C12.73719784 0.12116764 15.49934807 0.15403095 18.26171875 0.1953125 C17.93171875 1.1853125 17.60171875 2.1753125 17.26171875 3.1953125 C16.66222412 3.22036865 16.06272949 3.2454248 15.44506836 3.27124023 C12.69628551 3.38817023 9.947765 3.51045197 7.19921875 3.6328125 C6.25626953 3.67212891 5.31332031 3.71144531 4.34179688 3.75195312 C-0.74943603 3.98256646 -5.70892881 4.3652252 -10.73828125 5.1953125 C-10.73828125 4.2053125 -10.73828125 3.2153125 -10.73828125 2.1953125 C-6.99709569 0.46953018 -4.10812106 -0.04393712 0 0 Z " fill="#323F7E" transform="translate(431.73828125,374.8046875)"/>
<path d="M0 0 C11.55 0 23.1 0 35 0 C35 1.65 35 3.3 35 5 C32.15326245 6.42336877 29.85384653 6.00758837 26.6796875 5.87890625 C25.42285156 5.83056641 24.16601562 5.78222656 22.87109375 5.73242188 C21.55238281 5.67634766 20.23367188 5.62027344 18.875 5.5625 C17.53517562 5.50927587 16.19533192 5.45653549 14.85546875 5.40429688 C11.57009113 5.27429992 8.28499322 5.13932314 5 5 C5 4.67 5 4.34 5 4 C12.26 3.67 19.52 3.34 27 3 C27 2.34 27 1.68 27 1 C18.09 1 9.18 1 0 1 C0 0.67 0 0.34 0 0 Z " fill="#3B477A" transform="translate(494,374)"/>
<path d="M0 0 C0.99 0 1.98 0 3 0 C3 6.27 3 12.54 3 19 C6.63 19 10.26 19 14 19 C14 19.66 14 20.32 14 21 C9.38 21 4.76 21 0 21 C0 14.07 0 7.14 0 0 Z " fill="#262626" transform="translate(446,235)"/>
<path d="M0 0 C6.0546875 -0.1953125 6.0546875 -0.1953125 8 0 C10 2 10 2 10.3125 4.5 C10.1578125 5.7375 10.1578125 5.7375 10 7 C6.3558226 9.4294516 4.28758728 9.16179575 0 9 C0 6.03 0 3.06 0 0 Z " fill="#FAFAFA" transform="translate(568,589)"/>
<path d="M0 0 C12.32142857 -0.26785714 12.32142857 -0.26785714 16 2 C15.01 2.495 15.01 2.495 14 3 C13.67 3.66 13.34 4.32 13 5 C12.67 4.67 12.34 4.34 12 4 C10.65252916 3.76924918 9.29622435 3.58846937 7.9375 3.4375 C6.638125 3.293125 5.33875 3.14875 4 3 C4 5.97 4 8.94 4 12 C3.34 12 2.68 12 2 12 C1.67 14.97 1.34 17.94 1 21 C0.67 21 0.34 21 0 21 C0 14.07 0 7.14 0 0 Z " fill="#545454" transform="translate(564,586)"/>
<path d="M0 0 C0.66 0 1.32 0 2 0 C2 1.65 2 3.3 2 5 C10.91 5 19.82 5 29 5 C29 3.35 29 1.7 29 0 C29.66 0 30.32 0 31 0 C31.04254356 1.99954746 31.04080783 4.00041636 31 6 C30 7 30 7 27.13256836 7.11352539 C25.88096924 7.10828857 24.62937012 7.10305176 23.33984375 7.09765625 C22.34314415 7.09553383 22.34314415 7.09553383 21.3263092 7.09336853 C19.19666101 7.08775518 17.06711661 7.07520054 14.9375 7.0625 C13.49674631 7.05748671 12.05599097 7.05292351 10.61523438 7.04882812 C7.07678898 7.03778145 3.53840461 7.02050792 0 7 C0 4.69 0 2.38 0 0 Z " fill="#FEFDCA" transform="translate(772,364)"/>
<path d="M0 0 C0.66 0 1.32 0 2 0 C2 1.65 2 3.3 2 5 C4.97 5 7.94 5 11 5 C11 4.34 11 3.68 11 3 C14 4 14 4 15.6875 6.9375 C17 10 17 10 17 12 C15.0625 11.6875 15.0625 11.6875 13 11 C12.67 10.01 12.34 9.02 12 8 C8.04 7.67 4.08 7.34 0 7 C-0.33 8.65 -0.66 10.3 -1 12 C-1.99 12 -2.98 12 -4 12 C-3.33501617 7.61110675 -1.81242323 4.0188515 0 0 Z " fill="#292929" transform="translate(540,244)"/>
<path d="M0 0 C0.66 0 1.32 0 2 0 C1.67 1.98 1.34 3.96 1 6 C5.29 6 9.58 6 14 6 C16 10 16 10 16 13 C15.01 13 14.02 13 13 13 C12.67 11.35 12.34 9.7 12 8 C10.04081032 8.05991406 8.08248471 8.14867138 6.125 8.25 C5.03445313 8.29640625 3.94390625 8.3428125 2.8203125 8.390625 C-0.1332065 8.68846128 -0.1332065 8.68846128 -1.3828125 11.046875 C-1.58648437 11.69140625 -1.79015625 12.3359375 -2 13 C-2.99 13 -3.98 13 -5 13 C-4.54554036 11.58208592 -4.08625056 10.16571954 -3.625 8.75 C-3.24214844 7.56664062 -3.24214844 7.56664062 -2.8515625 6.359375 C-2.04826333 4.13372042 -1.10288338 2.09068328 0 0 Z " fill="#2C2C2C" transform="translate(426,243)"/>
<path d="M0 0 C0.66 0 1.32 0 2 0 C2 1.65 2 3.3 2 5 C11.24 5 20.48 5 30 5 C30 3.35 30 1.7 30 0 C30.33 0 30.66 0 31 0 C31.04254356 1.99954746 31.04080783 4.00041636 31 6 C29.14285943 7.85714057 26.07492951 7.13048681 23.59375 7.1328125 C22.29308594 7.13410156 20.99242187 7.13539063 19.65234375 7.13671875 C18.97155762 7.13462402 18.29077148 7.1325293 17.58935547 7.13037109 C15.50871485 7.1250224 13.42829011 7.1303168 11.34765625 7.13671875 C9.39666016 7.13478516 9.39666016 7.13478516 7.40625 7.1328125 C6.20291016 7.13168457 4.99957031 7.13055664 3.75976562 7.12939453 C1 7 1 7 0 6 C-0.04080783 4.00041636 -0.04254356 1.99954746 0 0 Z " fill="#FEFDCB" transform="translate(938,364)"/>
<path d="M0 0 C3.3 0 6.6 0 10 0 C10 0.33 10 0.66 10 1 C7.69 1 5.38 1 3 1 C3 4.63 3 8.26 3 12 C5.31 12 7.62 12 10 12 C10 12.33 10 12.66 10 13 C7.69 13 5.38 13 3 13 C3 15.31 3 17.62 3 20 C2.01 20 1.02 20 0 20 C0 13.4 0 6.8 0 0 Z " fill="#252525" transform="translate(507,236)"/>
<path d="M0 0 C1.32 0.33 2.64 0.66 4 1 C4.33 2.65 4.66 4.3 5 6 C4.34 6 3.68 6 3 6 C3 10.95 3 15.9 3 21 C2.01 21 1.02 21 0 21 C0 14.07 0 7.14 0 0 Z " fill="#282828" transform="translate(636,586)"/>
<path d="M0 0 C11.22 0 22.44 0 34 0 C34.495 2.475 34.495 2.475 35 5 C34.34 5 33.68 5 33 5 C32.505 4.01 32.505 4.01 32 3 C31.17274414 2.98018066 30.34548828 2.96036133 29.49316406 2.93994141 C25.74512194 2.84468788 21.99763683 2.73500891 18.25 2.625 C16.94804688 2.5940625 15.64609375 2.563125 14.3046875 2.53125 C13.05429687 2.49257813 11.80390625 2.45390625 10.515625 2.4140625 C8.78747559 2.36693115 8.78747559 2.36693115 7.02441406 2.31884766 C4 2 4 2 0 0 Z " fill="#636C99" transform="translate(854,358)"/>
<path d="M0 0 C2.97 0 5.94 0 9 0 C9 0.33 9 0.66 9 1 C7.02 1 5.04 1 3 1 C3 4.63 3 8.26 3 12 C4.98 12 6.96 12 9 12 C9 12.33 9 12.66 9 13 C7.02 13 5.04 13 3 13 C3 15.31 3 17.62 3 20 C2.01 20 1.02 20 0 20 C0 13.4 0 6.8 0 0 Z " fill="#252525" transform="translate(716,236)"/>
<path d="M0 0 C1.32 0.66 2.64 1.32 4 2 C3.34 2 2.68 2 2 2 C0.50915168 6.47254497 0.50915168 10.52745503 2 15 C4.64 15.33 7.28 15.66 10 16 C10 16.33 10 16.66 10 17 C7.23735711 17.59732819 4.83967231 18 2 18 C-1.70524168 14.73066911 -2.92721958 13.12809655 -3.25 8.125 C-3.22382048 4.52531645 -2.6189021 2.6189021 0 0 Z " fill="#434343" transform="translate(662,588)"/>
<path d="M0 0 C2.50970743 0.39973163 4.66866573 1.17417662 6.9375 2.30859375 C6.6075 3.29859375 6.2775 4.28859375 5.9375 5.30859375 C4.9475 4.97859375 3.9575 4.64859375 2.9375 4.30859375 C-0.56531237 3.94136342 -3.85884803 3.64852654 -7 5.37109375 C-8.57418665 8.2416694 -8.75823087 11.08334095 -9.0625 14.30859375 C-9.3925 14.30859375 -9.7225 14.30859375 -10.0625 14.30859375 C-10.60622951 11.25011527 -11.0625 8.4208657 -11.0625 5.30859375 C-7.7315781 0.83266744 -5.36266394 -0.3351665 0 0 Z " fill="#3A3A3A" transform="translate(474.0625,234.69140625)"/>
<path d="M0 0 C5.94 1.485 5.94 1.485 12 3 C12 4.65 12 6.3 12 8 C6.03453116 8.38077461 1.56313898 7.06602082 -4 5 C-5.175625 4.608125 -6.35125 4.21625 -7.5625 3.8125 C-8.366875 3.544375 -9.17125 3.27625 -10 3 C-6.13334004 1.51282309 -3.79712698 2.65983753 0 4 C2.32694964 4.37531446 4.65976685 4.71917202 7 5 C7 4.34 7 3.68 7 3 C4.69 2.34 2.38 1.68 0 1 C0 0.67 0 0.34 0 0 Z " fill="#F8F17C" transform="translate(818,342)"/>
<path d="M0 0 C1.32 0.33 2.64 0.66 4 1 C5.265625 3.58203125 5.265625 3.58203125 6.25 6.8125 C6.75273438 8.39998047 6.75273438 8.39998047 7.265625 10.01953125 C8 13 8 13 8 17 C8.66 17 9.32 17 10 17 C10 18.32 10 19.64 10 21 C9.01 21 8.02 21 7 21 C4.69 14.07 2.38 7.14 0 0 Z " fill="#353535" transform="translate(683,586)"/>
<path d="M0 0 C2.97 0 5.94 0 9 0 C9 0.33 9 0.66 9 1 C6.69 1 4.38 1 2 1 C2 4.63 2 8.26 2 12 C4.64 12 7.28 12 10 12 C10 12.66 10 13.32 10 14 C7.36 14 4.72 14 2 14 C2 15.98 2 17.96 2 20 C1.34 20 0.68 20 0 20 C0 13.4 0 6.8 0 0 Z " fill="#262626" transform="translate(594,236)"/>
<path d="M0 0 C0.99 0 1.98 0 3 0 C3 6.93 3 13.86 3 21 C2.01 21 1.02 21 0 21 C0 14.07 0 7.14 0 0 Z " fill="#292929" transform="translate(529,235)"/>
<path d="M0 0 C3 1 3 1 4.16796875 2.7421875 C4.50441406 3.44601563 4.84085938 4.14984375 5.1875 4.875 C5.53167969 5.57367188 5.87585938 6.27234375 6.23046875 6.9921875 C7 9 7 9 7 12 C6.01 12 5.02 12 4 12 C3.67 10.35 3.34 8.7 3 7 C-1.62 7 -6.24 7 -11 7 C-10.67 6.34 -10.34 5.68 -10 5 C-6.37 5 -2.74 5 1 5 C0.67 3.35 0.34 1.7 0 0 Z " fill="#2C2C2C" transform="translate(644,244)"/>
<path d="M0 0 C0.33 0.66 0.66 1.32 1 2 C0.67 2.66 0.34 3.32 0 4 C-0.66 4 -1.32 4 -2 4 C-2.0825 4.53625 -2.165 5.0725 -2.25 5.625 C-3 8 -3 8 -5.0625 11 C-7.36168362 13.96481606 -7.36168362 13.96481606 -7 18 C-6.01 18 -5.02 18 -4 18 C-1.78831775 15.05763218 -1.78831775 15.05763218 0 12 C0 15.64478912 -0.85802506 17.09303401 -3 20 C-5 20.9375 -5 20.9375 -7 21 C-7.99 20.34 -8.98 19.68 -10 19 C-9.45128467 15.06754014 -8.78374039 11.56748077 -7 8 C-6.01 7.34 -5.02 6.68 -4 6 C-3.835 5.34 -3.67 4.68 -3.5 4 C-3 2 -3 2 0 0 Z " fill="#FEFDD2" transform="translate(896,324)"/>
<path d="M0 0 C0.33 0 0.66 0 1 0 C1.10957031 0.69867188 1.21914063 1.39734375 1.33203125 2.1171875 C1.49058594 3.02726563 1.64914062 3.93734375 1.8125 4.875 C1.96332031 5.77992188 2.11414063 6.68484375 2.26953125 7.6171875 C2.83051301 10.34412478 2.83051301 10.34412478 6 12 C7.9896995 12.39013716 9.99019869 12.73202649 12 13 C12 13.66 12 14.32 12 15 C4.97346278 15.4763754 4.97346278 15.4763754 1.0625 13.5625 C-1.773684 10.03875625 -2.33829862 6.49329967 -2 2 C-1.34 1.34 -0.68 0.68 0 0 Z " fill="#2B2B2B" transform="translate(691,241)"/>
<path d="M0 0 C0.99 0 1.98 0 3 0 C3.36923077 7.38461538 3.36923077 7.38461538 1.5 10.5 C1.005 10.995 0.51 11.49 0 12 C1.98 14.97 1.98 14.97 4 18 C0 18 0 18 -1.75 16.375 C-3.30380397 13.42277246 -3.22432841 11.29014997 -3 8 C-2.34 7.67 -1.68 7.34 -1 7 C-0.59270772 4.67843403 -0.25561323 2.3431213 0 0 Z " fill="#3A3A3A" transform="translate(578,589)"/>
<path d="M0 0 C4.96916636 0.51405169 9.29026351 1.23384882 14 3 C10.72814447 4.07310858 8.57052408 3.89263102 5.25 3.0625 C4.45078125 2.86785156 3.6515625 2.67320312 2.828125 2.47265625 C2.22484375 2.31667969 1.6215625 2.16070312 1 2 C1 3.65 1 5.3 1 7 C1.58007812 7.04898437 2.16015625 7.09796875 2.7578125 7.1484375 C7.43923092 7.59649405 11.57485459 8.298021 16 10 C16 10.33 16 10.66 16 11 C9.66606918 11.34548714 4.89738492 10.29342747 -1 8 C-1.125 2.25 -1.125 2.25 0 0 Z " fill="#FEFED5" transform="translate(798,336)"/>
<path d="M0 0 C0.66 0 1.32 0 2 0 C2 6.93 2 13.86 2 21 C0.68 20.67 -0.64 20.34 -2 20 C-2.33 18.68 -2.66 17.36 -3 16 C-2.01 16 -1.02 16 0 16 C0 10.72 0 5.44 0 0 Z " fill="#292929" transform="translate(652,586)"/>
<path d="M0 0 C0.99 0 1.98 0 3 0 C2.33392561 4.40958108 0.73375271 8.26572186 -1.0625 12.3125 C-1.34416016 12.95767578 -1.62582031 13.60285156 -1.91601562 14.26757812 C-2.6062743 15.84698358 -3.30253198 17.42376493 -4 19 C-6 16 -6 16 -5.64453125 13.984375 C-5.36996094 13.24703125 -5.09539063 12.5096875 -4.8125 11.75 C-4.52375 10.96238281 -4.235 10.17476562 -3.9375 9.36328125 C-2.68684069 6.21057758 -1.38370633 3.09686654 0 0 Z " fill="#3A3A3A" transform="translate(601,586)"/>
<path d="M0 0 C0.99 0 1.98 0 3 0 C2.44040477 3.82246588 0.78682643 5.58971741 -1.9375 8.25 C-2.64777344 8.95640625 -3.35804688 9.6628125 -4.08984375 10.390625 C-6 12 -6 12 -8 12 C-8.33 10.02 -8.66 8.04 -9 6 C-8.071875 5.7525 -7.14375 5.505 -6.1875 5.25 C-2.74972473 3.90185284 -2.0396478 2.91378257 0 0 Z " fill="#343F7B" transform="translate(389,526)"/>
<path d="M0 0 C3.44216672 2.6598561 3.99504674 5.90288286 5 10 C2.03 10 -0.94 10 -4 10 C-3.52449439 8.51965236 -3.04448784 7.04074979 -2.5625 5.5625 C-2.29566406 4.73878906 -2.02882813 3.91507813 -1.75390625 3.06640625 C-1 1 -1 1 0 0 Z " fill="#D8D8D8" transform="translate(640,239)"/>
<path d="M0 0 C3.44216672 2.6598561 3.99504674 5.90288286 5 10 C2.03 10 -0.94 10 -4 10 C-3.52449439 8.51965236 -3.04448784 7.04074979 -2.5625 5.5625 C-2.29566406 4.73878906 -2.02882813 3.91507813 -1.75390625 3.06640625 C-1 1 -1 1 0 0 Z " fill="#D8D8D8" transform="translate(431,239)"/>
<path d="M0 0 C0.99 0 1.98 0 3 0 C3.33 1.98 3.66 3.96 4 6 C3.34 6 2.68 6 2 6 C2 10.95 2 15.9 2 21 C1.34 21 0.68 21 0 21 C0 14.07 0 7.14 0 0 Z " fill="#1D1D1D" transform="translate(738,235)"/>
<path d="M0 0 C0.66 0 1.32 0 2 0 C5 6.625 5 6.625 5 10 C2.36 10 -0.28 10 -3 10 C-2.39009109 6.44219804 -1.4216319 3.3171411 0 0 Z " fill="#DADADA" transform="translate(545,239)"/>
<path d="M0 0 C0.66 0 1.32 0 2 0 C2.62790698 8.1627907 2.62790698 8.1627907 0.125 11.5 C-3.72338104 14.21650426 -6.307758 14.08689337 -11 14 C-11.33 13.34 -11.66 12.68 -12 12 C-8.7 11.34 -5.4 10.68 -2 10 C-1.34 6.7 -0.68 3.4 0 0 Z " fill="#2C2C2C" transform="translate(678,593)"/>
<path d="M0 0 C0.33 0 0.66 0 1 0 C1 1.65 1 3.3 1 5 C5.62 5 10.24 5 15 5 C15 5.99 15 6.98 15 8 C10.05 8 5.1 8 0 8 C0 5.36 0 2.72 0 0 Z " fill="#454545" transform="translate(608,599)"/>
<path d="M0 0 C5.852795 0.51482919 11.3297637 1.45357192 17 3 C17 3.33 17 3.66 17 4 C13.37 4 9.74 4 6 4 C6.99 4.66 7.98 5.32 9 6 C6.03 5.67 3.06 5.34 0 5 C0 3.35 0 1.7 0 0 Z " fill="#F7F077" transform="translate(799,338)"/>
<path d="M0 0 C4.29 0 8.58 0 13 0 C14.52150158 3.04300316 14.23899393 5.654085 14 9 C13.01 9.66 12.02 10.32 11 11 C10.01 10.34 9.02 9.68 8 9 C8.66 8.67 9.32 8.34 10 8 C10.042721 6.33388095 10.04063832 4.66617115 10 3 C8.41727399 1.41727399 6.61965997 1.65264253 4.4375 1.4375 C3.61121094 1.35371094 2.78492188 1.26992188 1.93359375 1.18359375 C1.29550781 1.12300781 0.65742188 1.06242188 0 1 C0 0.67 0 0.34 0 0 Z " fill="#3F3F3F" transform="translate(486,588)"/>
<path d="M0 0 C0 3 0 3 -1 5 C-0.34 5 0.32 5 1 5 C0.65120368 8.25543229 -0.02133261 9.01873107 -2.5625 11.25 C-3.366875 11.8275 -4.17125 12.405 -5 13 C-5.33 12.01 -5.66 11.02 -6 10 C-6.66 9.34 -7.32 8.68 -8 8 C-5.36 5.36 -2.72 2.72 0 0 Z " fill="#515B8C" transform="translate(506,334)"/>
<path d="M0 0 C9.1796875 -0.1953125 9.1796875 -0.1953125 12 0 C12.66 0.66 13.32 1.32 14 2 C11.64653604 3.17673198 10.1193967 3.16623866 7.5 3.1875 C6.7059375 3.20167969 5.911875 3.21585938 5.09375 3.23046875 C3 3 3 3 1 1 C1 7.6 1 14.2 1 21 C0.67 21 0.34 21 0 21 C0 14.07 0 7.14 0 0 Z " fill="#434343" transform="translate(593,235)"/>
<path d="M0 0 C4.29 0 8.58 0 13 0 C13 0.33 13 0.66 13 1 C9.7 1.33 6.4 1.66 3 2 C2.67 4.31 2.34 6.62 2 9 C5.3 9 8.6 9 12 9 C12 9.33 12 9.66 12 10 C8.04 10 4.08 10 0 10 C0 6.7 0 3.4 0 0 Z " fill="#1D1D1D" transform="translate(608,587)"/>
<path d="M0 0 C11.73417302 -0.55485582 11.73417302 -0.55485582 16 3 C17 4 17 4 17.0625 7.0625 C17.041875 8.031875 17.02125 9.00125 17 10 C16.67 10 16.34 10 16 10 C16 8.35 16 6.7 16 5 C15.09636719 4.89042969 14.19273437 4.78085938 13.26171875 4.66796875 C12.08222656 4.50941406 10.90273438 4.35085937 9.6875 4.1875 C8.51574219 4.03667969 7.34398437 3.88585937 6.13671875 3.73046875 C3.00579726 3.00135005 1.90354807 2.50828536 0 0 Z " fill="#414141" transform="translate(507,235)"/>
<path d="M0 0 C2.33333333 2.33333333 4.66666667 4.66666667 7 7 C7.33 7 7.66 7 8 7 C8 8.65 8 10.3 8 12 C7.01 12.495 7.01 12.495 6 13 C4.79723305 11.59627198 3.61319481 10.17647903 2.4375 8.75 C1.44556641 7.56664062 1.44556641 7.56664062 0.43359375 6.359375 C-1 4 -1 4 -0.71484375 1.703125 C-0.47894531 1.14109375 -0.24304688 0.5790625 0 0 Z " fill="#303030" transform="translate(569,243)"/>
<path d="M0 0 C0.99 0.495 0.99 0.495 2 1 C2 2.32 2 3.64 2 5 C6.29 5 10.58 5 15 5 C15 5.66 15 6.32 15 7 C10.05 7 5.1 7 0 7 C0 4.69 0 2.38 0 0 Z " fill="#1E1E1E" transform="translate(487,249)"/>
<path d="M0 0 C0.66 0 1.32 0 2 0 C1.50168276 3.68754757 0.89932357 5.60490662 -2 8 C-1.67 8.66 -1.34 9.32 -1 10 C-1.9375 12.125 -1.9375 12.125 -3 14 C-3.99 14 -4.98 14 -6 14 C-2.90009699 3.90882638 -2.90009699 3.90882638 0 0 Z " fill="#323232" transform="translate(636,242)"/>
<path d="M0 0 C0.33 0 0.66 0 1 0 C1 2.31 1 4.62 1 7 C4.96 7 8.92 7 13 7 C13 7.66 13 8.32 13 9 C8.38 9 3.76 9 -1 9 C-0.67 6.03 -0.34 3.06 0 0 Z " fill="#1E1E1E" transform="translate(507,598)"/>
<path d="M0 0 C0 3 0 3 -2.25 5.75 C-5 8 -5 8 -7.3125 7.8125 C-8.1478125 7.4103125 -8.1478125 7.4103125 -9 7 C-7.88625 6.38125 -7.88625 6.38125 -6.75 5.75 C-4.09828315 4.06254382 -2.13325986 2.29127911 0 0 Z M-12 7 C-10.02 7.99 -10.02 7.99 -8 9 C-8.33 10.32 -8.66 11.64 -9 13 C-10.5 11.6875 -10.5 11.6875 -12 10 C-12 9.01 -12 8.02 -12 7 Z " fill="#3A457D" transform="translate(389,524)"/>
<path d="M0 0 C1.65 0 3.3 0 5 0 C5.38063221 2.3260857 5.71269945 4.66055264 6 7 C4.18884044 8.81115956 1.38721773 8.38199448 -1.0625 8.5625 C-2.71958984 8.68818359 -2.71958984 8.68818359 -4.41015625 8.81640625 C-5.26480469 8.87699219 -6.11945312 8.93757813 -7 9 C-3.71536341 6.81024227 -0.79303725 6.00193437 3 5 C3.33 3.68 3.66 2.36 4 1 C2.68 0.67 1.36 0.34 0 0 Z " fill="#FDFBC5" transform="translate(937,337)"/>
<path d="M0 0 C2 1.375 2 1.375 4 3 C4 3.66 4 4.32 4 5 C4.66 5 5.32 5 6 5 C6 6.65 6 8.3 6 10 C4.68 9.67 3.36 9.34 2 9 C1.34 6.03 0.68 3.06 0 0 Z " fill="#2D2D2D" transform="translate(702,597)"/>
<path d="M0 0 C0 0.66 0 1.32 0 2 C-1.98 2 -3.96 2 -6 2 C-6 2.66 -6 3.32 -6 4 C-8.31 4 -10.62 4 -13 4 C-12.67 3.01 -12.34 2.02 -12 1 C-7.9472484 0.01751476 -4.16138263 -0.08159574 0 0 Z " fill="#FBF056" transform="translate(936,341)"/>
<path d="M0 0 C1.79133978 -0.05391993 3.58313899 -0.09275571 5.375 -0.125 C6.37273437 -0.14820313 7.37046875 -0.17140625 8.3984375 -0.1953125 C11 0 11 0 13 2 C9.37 2.33 5.74 2.66 2 3 C1.67 4.65 1.34 6.3 1 8 C0.67 8 0.34 8 0 8 C0 5.36 0 2.72 0 0 Z " fill="#232323" transform="translate(484,586)"/>
<path d="M0 0 C0.99 0.33 1.98 0.66 3 1 C3 2.98 3 4.96 3 7 C1.68 7.33 0.36 7.66 -1 8 C-1.625 5.6875 -1.625 5.6875 -2 3 C-1.34 2.01 -0.68 1.02 0 0 Z " fill="#374481" transform="translate(498,343)"/>
<path d="M0 0 C2.31 1.98 4.62 3.96 7 6 C6.67 6.99 6.34 7.98 6 9 C4.68 7.68 3.36 6.36 2 5 C1.67 5.99 1.34 6.98 1 8 C-0.0625 6.25 -0.0625 6.25 -1 4 C-0.67 2.68 -0.34 1.36 0 0 Z " fill="#455181" transform="translate(394,512)"/>
<path d="M0 0 C-1.32 0.33 -2.64 0.66 -4 1 C-4 1.66 -4 2.32 -4 3 C-2.35 3 -0.7 3 1 3 C-2.22791555 5.1519437 -3.28400809 5.20086443 -7 5 C-7 3.35 -7 1.7 -7 0 C-3.86650268 -1.04449911 -3.01031744 -0.93423645 0 0 Z " fill="#F7F17F" transform="translate(917,345)"/>
<path d="M0 0 C2.64465038 3.1254959 3.84414715 6.08788267 5 10 C4.34 10 3.68 10 3 10 C2.67 10.66 2.34 11.32 2 12 C1.47026689 10.37787941 0.95146893 8.75218416 0.4375 7.125 C0.14746094 6.22007812 -0.14257812 5.31515625 -0.44140625 4.3828125 C-1 2 -1 2 0 0 Z " fill="#3F3F3F" transform="translate(548,237)"/>
<path d="M0 0 C4.29 0.66 8.58 1.32 13 2 C12.67 2.66 12.34 3.32 12 4 C8.7 4 5.4 4 2 4 C1.34 2.68 0.68 1.36 0 0 Z " fill="#2C2C2C" transform="translate(524,603)"/>
<path d="M0 0 C0.99 0.495 0.99 0.495 2 1 C1.01 1.495 1.01 1.495 0 2 C0 1.34 0 0.68 0 0 Z M-3 2 C-2.01 2 -1.02 2 0 2 C0 3.65 0 5.3 0 7 C-1.32 7 -2.64 7 -4 7 C-5.75 5 -5.75 5 -7 3 C-5.68 3.33 -4.36 3.66 -3 4 C-3 3.34 -3 2.68 -3 2 Z " fill="#313F76" transform="translate(514,359)"/>
<path d="M0 0 C0.99 0 1.98 0 3 0 C3 2.64 3 5.28 3 8 C2.01 8.33 1.02 8.66 0 9 C-0.66 8.34 -1.32 7.68 -2 7 C-1.34 7 -0.68 7 0 7 C0 4.69 0 2.38 0 0 Z " fill="#303030" transform="translate(478,246)"/>
<path d="M0 0 C1.98 0.99 1.98 0.99 4 2 C4 3.32 4 4.64 4 6 C4.66 6 5.32 6 6 6 C6 6.66 6 7.32 6 8 C4.35 7.67 2.7 7.34 1 7 C0.67 4.69 0.34 2.38 0 0 Z " fill="#FAF05A" transform="translate(839,323)"/>
<path d="M0 0 C0.66 0.33 1.32 0.66 2 1 C2 1.66 2 2.32 2 3 C4.64 3.33 7.28 3.66 10 4 C10 4.33 10 4.66 10 5 C7.23735711 5.59732819 4.83967231 6 2 6 C1.01 5.34 0.02 4.68 -1 4 C-0.67 2.68 -0.34 1.36 0 0 Z " fill="#494949" transform="translate(662,600)"/>
<path d="M0 0 C1.65 0.33 3.3 0.66 5 1 C3.02 1.99 3.02 1.99 1 3 C1.66 5.31 2.32 7.62 3 10 C2.01 9.67 1.02 9.34 0 9 C-1.125 2.25 -1.125 2.25 0 0 Z " fill="#FDFCD2" transform="translate(832,312)"/>
<path d="M0 0 C0.66 0 1.32 0 2 0 C2.49230769 6.4 2.49230769 6.4 0 9.4375 C-0.99 10.2109375 -0.99 10.2109375 -2 11 C-2.33 9.35 -2.66 7.7 -3 6 C-2.34 5.67 -1.68 5.34 -1 5 C-0.34444881 2.47266765 -0.34444881 2.47266765 0 0 Z " fill="#2E2E2E" transform="translate(521,240)"/>
<path d="M0 0 C2.5 1.5625 2.5 1.5625 5 4 C5.3125 7.75 5.3125 7.75 5 11 C2.80040399 8.80040399 1.442372 6.75361928 0 4 C0 2.68 0 1.36 0 0 Z " fill="#2C2C2C" transform="translate(705,236)"/>
<path d="M0 0 C0.99 0 1.98 0 3 0 C3.33 1.98 3.66 3.96 4 6 C3.34 6 2.68 6 2 6 C1.67 6.66 1.34 7.32 1 8 C0 7 0 7 -0.0625 3.4375 C-0.041875 2.303125 -0.02125 1.16875 0 0 Z " fill="#2A2A2A" transform="translate(738,235)"/>
<path d="M0 0 C4.62 0 9.24 0 14 0 C14 0.33 14 0.66 14 1 C10.37 1.33 6.74 1.66 3 2 C2.34 3.98 1.68 5.96 1 8 C0.67 8 0.34 8 0 8 C0 5.36 0 2.72 0 0 Z " fill="#1C1C1C" transform="translate(487,236)"/>
<path d="M0 0 C-0.1875 1.8125 -0.1875 1.8125 -1 4 C-3.5625 5.75 -3.5625 5.75 -6 7 C-6 4 -6 4 -4.125 1.8125 C-2 0 -2 0 0 0 Z " fill="#404040" transform="translate(696,236)"/>
<path d="M0 0 C4.29 0 8.58 0 13 0 C13 0.33 13 0.66 13 1 C9.7 1.33 6.4 1.66 3 2 C2.67 4.31 2.34 6.62 2 9 C1.67 9 1.34 9 1 9 C0.67 6.03 0.34 3.06 0 0 Z " fill="#202020" transform="translate(672,236)"/>
<path d="M0 0 C1.485 0.99 1.485 0.99 3 2 C3 2.66 3 3.32 3 4 C3.66 4 4.32 4 5 4 C5 5.32 5 6.64 5 8 C4.01 8 3.02 8 2 8 C0.74335022 5.09399739 0 3.20395416 0 0 Z " fill="#212121" transform="translate(688,599)"/>
<path d="M0 0 C0 0.99 0 1.98 0 3 C0.1496644 4.39775858 0.31720487 5.7936871 0.5 7.1875 C0.665 8.445625 0.83 9.70375 1 11 C-0.65 9.35 -2.3 7.7 -4 6 C-2.84826645 3.53199953 -1.95216435 1.95216435 0 0 Z " fill="#515A87" transform="translate(497,343)"/>
<path d="M0 0 C0 0.66 0 1.32 0 2 C-2.95664519 3.4783226 -5.74229737 3.06032783 -9 3 C-9.33 2.34 -9.66 1.68 -10 1 C-6.56484998 0.37542727 -3.50935186 0 0 0 Z " fill="#232323" transform="translate(676,604)"/>
<path d="M0 0 C2.15377564 2.62198774 3.40072174 4.64404172 4 8 C2.68 7.67 1.36 7.34 0 7 C-0.93423645 3.98968256 -1.04449911 3.13349732 0 0 Z " fill="#3C3C3C" transform="translate(553,248)"/>
<path d="M0 0 C1.32 0.33 2.64 0.66 4 1 C4 3.31 4 5.62 4 8 C3.34 8 2.68 8 2 8 C1.34 5.36 0.68 2.72 0 0 Z " fill="#252525" transform="translate(605,237)"/>
<path d="M0 0 C1.77706209 2.66559313 2.87548273 5.0280615 4 8 C2.68 7.67 1.36 7.34 0 7 C-0.93423645 3.98968256 -1.04449911 3.13349732 0 0 Z " fill="#494949" transform="translate(496,599)"/>
<path d="M0 0 C-0.99 0.495 -0.99 0.495 -2 1 C-2.33 1.66 -2.66 2.32 -3 3 C-3.33 2.67 -3.66 2.34 -4 2 C-5.34747084 1.76924918 -6.70377565 1.58846937 -8.0625 1.4375 C-9.361875 1.293125 -10.66125 1.14875 -12 1 C-12 0.67 -12 0.34 -12 0 C-7.6835078 -0.76173392 -4.25566547 -1.16063604 0 0 Z " fill="#535353" transform="translate(580,588)"/>
<path d="M0 0 C-0.33 0.99 -0.66 1.98 -1 3 C-5.455 2.01 -5.455 2.01 -10 1 C-10 0.67 -10 0.34 -10 0 C-6.30458414 -0.95024979 -3.69541586 -0.95024979 0 0 Z " fill="#494949" transform="translate(481,237)"/>
<path d="M0 0 C2.45823172 3.68734758 3.01242616 6.69699971 4 11 C2.68 10.34 1.36 9.68 0 9 C0 6.03 0 3.06 0 0 Z " fill="#555555" transform="translate(701,588)"/>
<path d="M0 0 C0.99 0 1.98 0 3 0 C3.66 1.98 4.32 3.96 5 6 C3.68 5.67 2.36 5.34 1 5 C0.67 3.35 0.34 1.7 0 0 Z " fill="#3C3C3C" transform="translate(584,586)"/>
<path d="M0 0 C0.33 0 0.66 0 1 0 C1 1.65 1 3.3 1 5 C2.32 5.66 3.64 6.32 5 7 C3.35 7.33 1.7 7.66 0 8 C0 5.36 0 2.72 0 0 Z " fill="#1E1E1E" transform="translate(608,599)"/>
<path d="M0 0 C0.33 0 0.66 0 1 0 C1 2.31 1 4.62 1 7 C1.99 7.33 2.98 7.66 4 8 C2.35 8.33 0.7 8.66 -1 9 C-0.67 6.03 -0.34 3.06 0 0 Z " fill="#242424" transform="translate(507,598)"/>
<path d="M0 0 C0 1.65 0 3.3 0 5 C-1.32 5 -2.64 5 -4 5 C-4 3.68 -4 2.36 -4 1 C-1 0 -1 0 0 0 Z " fill="#252525" transform="translate(596,602)"/>
<path d="M0 0 C0.33 0 0.66 0 1 0 C1.33 2.64 1.66 5.28 2 8 C1.01 8.495 1.01 8.495 0 9 C-1.36623674 6.26752652 -1.128426 4.01801098 -1 1 C-0.67 0.67 -0.34 0.34 0 0 Z " fill="#202020" transform="translate(660,593)"/>
<path d="M0 0 C1.9375 0.75 1.9375 0.75 4 2 C4.75 4.125 4.75 4.125 5 6 C4.01 6.33 3.02 6.66 2 7 C1.34 4.69 0.68 2.38 0 0 Z " fill="#303030" transform="translate(586,591)"/>
<path d="M0 0 C0 3 0 3 -2.5 5.6875 C-3.325 6.450625 -4.15 7.21375 -5 8 C-5.66 7.67 -6.32 7.34 -7 7 C-4.69 4.69 -2.38 2.38 0 0 Z " fill="#4A5686" transform="translate(389,524)"/>
<path d="M0 0 C0.99 0.33 1.98 0.66 3 1 C3.33 2.65 3.66 4.3 4 6 C3.01 6 2.02 6 1 6 C0.67 4.02 0.34 2.04 0 0 Z " fill="#FAF056" transform="translate(835,316)"/>
<path d="M0 0 C3 3.625 3 3.625 3 7 C2.01 7 1.02 7 0 7 C-0.93423645 3.98968256 -1.04449911 3.13349732 0 0 Z " fill="#404040" transform="translate(439,249)"/>
<path d="M0 0 C0.33 0.66 0.66 1.32 1 2 C1.66 2.33 2.32 2.66 3 3 C2.34 4.32 1.68 5.64 1 7 C0.01 7 -0.98 7 -2 7 C-1.34 4.69 -0.68 2.38 0 0 Z " fill="#393939" transform="translate(632,249)"/>
</svg>
